<svg height="512pt" viewBox="0 0 512 512" width="512pt" xmlns="http://www.w3.org/2000/svg"><path d="m382 10c-17.449219 0-32.289062 11.171875-37.75 26.75l17.75 33.25h54.648438c3.402343-5.878906 5.351562-12.710938 5.351562-20 0-22.089844-17.910156-40-40-40zm0 0" fill="#ffc66c"/><path d="m202 342c0-15.410156 0-111.117188 0-126 0-33.140625 26.859375-60 60-60h140c33.140625 0 60 26.859375 60 60v126c-80.402344 0-179.8125 0-260 0zm0 0" fill="#f2f2fc"/><path d="m462 342v100c0 11.050781-8.949219 20-20 20-45.496094 0-174.574219 0-220 0-11.050781 0-20-8.949219-20-20v-100zm0 0" fill="#ffc66c"/><path d="m502 302c0 11.039062-8.960938 20-20 20h-20v-20c0-11.050781 8.949219-20 20-20 11.039062 0 20 8.960938 20 20zm0 0" fill="#537983"/><path d="m442 462v20c0 11.050781-8.949219 20-20 20h-20c-11.050781 0-20-8.949219-20-20v-20zm0 0" fill="#537983"/><path d="m422 70c11.050781 0 20 8.949219 20 20 0 11.039062-8.960938 20-20 20h-160c-11.050781 0-20-8.949219-20-20s8.949219-20 20-20h20c0-22.089844 17.910156-40 40-40 22.097656 0 40 17.914062 40 40zm0 0" fill="#f2f2fc"/><path d="m402 382c11.050781 0 20 8.949219 20 20s-8.949219 20-20 20-20-8.949219-20-20 8.949219-20 20-20zm0 0" fill="#ff5d5d"/><path d="m282 462v20c0 11.050781-8.949219 20-20 20h-20c-11.050781 0-20-8.949219-20-20v-20zm0 0" fill="#537983"/><path d="m262 382c11.050781 0 20 8.949219 20 20s-8.949219 20-20 20-20-8.949219-20-20 8.949219-20 20-20zm0 0" fill="#ff5d5d"/><path d="m202 302v20h-20c-11.039062 0-20-8.960938-20-20s8.960938-20 20-20c11.050781 0 20 8.949219 20 20zm0 0" fill="#537983"/><path d="m170 30v120c0 11.050781-8.949219 20-20 20-14.519531 0-105.386719 0-120 0-11.050781 0-20-8.949219-20-20v-120c0-11.050781 8.949219-20 20-20h120c11.050781 0 20 8.949219 20 20zm0 0" fill="#4dbaf6"/><path d="m150 482v20h-120v-20c0-11.050781 8.949219-20 20-20h80c11.050781 0 20 8.949219 20 20zm0 0" fill="#80d99c"/><path d="m70 362h40v100h-40zm0 0" fill="#537983"/><path d="m402 206c5.519531 0 10-4.480469 10-10s-4.480469-10-10-10-10 4.480469-10 10 4.480469 10 10 10zm0 0"/><path d="m482 272c-3.507812 0-6.871094.609375-10 1.71875v-57.71875c0-38.597656-31.402344-70-70-70h-140c-38.597656 0-70 31.402344-70 70v57.71875c-3.128906-1.109375-6.492188-1.71875-10-1.71875-16.578125 0-30 13.425781-30 30 0 16.578125 13.425781 30 30 30h10v110c0 13.035156 8.359375 24.152344 20 28.28125v11.71875c0 3.507812.609375 6.871094 1.71875 10h-53.71875v-10c0-16.542969-13.457031-30-30-30h-10v-90c0-5.523438-4.476562-10-10-10h-10v-172h50c16.542969 0 30-13.457031 30-30v-120c0-16.542969-13.457031-30-30-30h-120c-16.542969 0-30 13.457031-30 30v120c0 16.542969 13.457031 30 30 30h50v172h-10c-5.523438 0-10 4.476562-10 10v90h-10c-16.542969 0-30 13.457031-30 30v10h-10c-5.523438 0-10 4.476562-10 10s4.476562 10 10 10h472c5.523438 0 10-4.476562 10-10s-4.476562-10-10-10h-31.71875c1.109375-3.128906 1.71875-6.492188 1.71875-10v-11.71875c11.640625-4.128906 20-15.246094 20-28.28125v-110h10c16.578125 0 30-13.425781 30-30 0-16.578125-13.425781-30-30-30zm-462-122v-120c0-5.515625 4.484375-10 10-10h120c5.515625 0 10 4.484375 10 10v120c0 5.515625-4.484375 10-10 10h-120c-5.515625 0-10-4.484375-10-10zm192 66c0-27.570312 22.429688-50 50-50h140c27.570312 0 50 22.429688 50 50v116h-85.855469l42.925781-42.929688c3.90625-3.90625 3.90625-10.234374 0-14.140624-3.902343-3.90625-10.234374-3.90625-14.140624 0l-57.074219 57.070312h-51.714844l42.929687-42.929688c3.90625-3.90625 3.90625-10.234374 0-14.140624s-10.234374-3.90625-14.140624 0l-57.074219 57.070312h-45.855469zm-40 86c0-5.519531 4.476562-10 10-10 5.515625 0 10 4.484375 10 10v10h-10c-5.519531 0-10-4.476562-10-10zm60 180v-10h40v10c0 5.515625-4.484375 10-10 10h-20c-5.515625 0-10-4.484375-10-10zm140-10v10c0 3.507812.609375 6.871094 1.71875 10h-83.4375c1.109375-3.128906 1.71875-6.492188 1.71875-10v-10zm-292-100h20v80h-20zm-40 110c0-5.515625 4.484375-10 10-10h80c5.515625 0 10 4.484375 10 10v10h-100zm362 10c-5.515625 0-10-4.484375-10-10v-10h40v10c0 5.515625-4.484375 10-10 10zm40-40h-220c-5.515625 0-10-4.484375-10-10v-90h240v90c0 5.515625-4.484375 10-10 10zm40-140h-10v-10c0-5.515625 4.484375-10 10-10 5.519531 0 10 4.476562 10 10 0 5.519531-4.476562 10-10 10zm0 0"/><path d="m120 110c0-7.671875-2.898438-14.679688-7.65625-19.988281 4.949219-5.511719 7.65625-12.554688 7.65625-20.011719 0-16.542969-13.457031-30-30-30h-20c-5.523438 0-10 4.476562-10 10v80c0 5.523438 4.476562 10 10 10h20c16.578125 0 30-13.425781 30-30zm-30-50c5.515625 0 10 4.484375 10 10 0 5.519531-4.476562 10-10 10h-10v-20zm-10 40h10c5.515625 0 10 4.484375 10 10 0 5.519531-4.476562 10-10 10h-10zm0 0"/><path d="m382 0c-17.367188 0-33.21875 9.007812-42.246094 23.25-5.628906-2.140625-11.628906-3.25-17.753906-3.25-24.144531 0-44.347656 17.207031-48.996094 40h-11.003906c-16.542969 0-30 13.457031-30 30s13.457031 30 30 30h160c16.578125 0 30-13.425781 30-30 0-13.523438-8.996094-24.980469-21.316406-28.714844.855468-3.683594 1.316406-7.46875 1.316406-11.285156 0-27.570312-22.429688-50-50-50zm0 20c16.542969 0 30 13.457031 30 30 0 3.425781-.59375 6.804688-1.71875 10h-39.289062c-2.019532-9.921875-7.023438-18.996094-14.347657-26.035156 5.414063-8.550782 14.925781-13.964844 25.355469-13.964844zm40 80h-160c-5.515625 0-10-4.484375-10-10s4.484375-10 10-10h20c5.523438 0 10-4.476562 10-10 0-16.542969 13.457031-30 30-30 5.972656 0 11.738281 1.746094 16.675781 5.054688 8.34375 5.597656 13.324219 14.925781 13.324219 24.945312 0 5.523438 4.476562 10 10 10h60c5.515625 0 10 4.484375 10 10 0 5.519531-4.476562 10-10 10zm0 0"/><path d="m342 402h-20c-5.523438 0-10 4.476562-10 10s4.476562 10 10 10h20c5.523438 0 10-4.476562 10-10s-4.476562-10-10-10zm0 0"/><path d="m402 372c-16.542969 0-30 13.457031-30 30s13.457031 30 30 30 30-13.457031 30-30-13.457031-30-30-30zm0 40c-5.515625 0-10-4.484375-10-10s4.484375-10 10-10 10 4.484375 10 10-4.484375 10-10 10zm0 0"/><path d="m262 372c-16.542969 0-30 13.457031-30 30s13.457031 30 30 30 30-13.457031 30-30-13.457031-30-30-30zm0 40c-5.515625 0-10-4.484375-10-10s4.484375-10 10-10 10 4.484375 10 10-4.484375 10-10 10zm0 0"/><path d="m263.71875 206h98.28125c5.523438 0 10-4.476562 10-10s-4.476562-10-10-10h-98.28125c-5.523438 0-10 4.476562-10 10s4.476562 10 10 10zm0 0"/></svg>