<svg height="512pt" viewBox="0 0 512 512" width="512pt" xmlns="http://www.w3.org/2000/svg"><path d="m396 276v80c0 22.089844-17.910156 40-40 40-8.902344 0-169.640625 0-200 0-22.089844 0-40-17.910156-40-40v-80zm0 0" fill="#ff5d5d"/><path d="m116 176v100h280v-100c-15.546875 0-264.453125 0-280 0zm0 0" fill="#537983"/><path d="m356 116h-200c-22.089844 0-40 17.910156-40 40v20h280v-20c0-22.089844-17.910156-40-40-40zm0 0" fill="#ff5d5d"/><g fill="#ffc66c"><path d="m336 316c11.050781 0 20 8.949219 20 20s-8.949219 20-20 20-20-8.949219-20-20 8.949219-20 20-20zm0 0"/><path d="m176 316c11.050781 0 20 8.949219 20 20s-8.949219 20-20 20-20-8.949219-20-20 8.949219-20 20-20zm0 0"/><path d="m316 136h-120c0-5.265625 0-44.867188 0-60h120zm0 0"/></g><path d="m419 426c-5.519531 0-10 4.480469-10 10s4.480469 10 10 10 10-4.480469 10-10-4.480469-10-10-10zm0 0"/><path d="m356 226c5.519531 0 10-4.480469 10-10s-4.480469-10-10-10-10 4.480469-10 10 4.480469 10 10 10zm0 0"/><path d="m216 206c-5.519531 0-10 4.480469-10 10s4.480469 10 10 10 10-4.480469 10-10-4.480469-10-10-10zm0 0"/><path d="m93 446c5.519531 0 10-4.480469 10-10s-4.480469-10-10-10-10 4.480469-10 10 4.480469 10 10 10zm0 0"/><path d="m256 0c-138.011719 0-256 117.816406-256 256 0 54.472656 20.683594 110.144531 58.242188 156.765625 3.464843 4.300781 9.761718 4.976563 14.0625 1.511719 4.300781-3.464844 4.976562-9.761719 1.511718-14.0625-34.703125-43.074219-53.816406-94.289063-53.816406-144.214844 0-127.925781 108.074219-236 236-236s236 108.074219 236 236c0 49.925781-19.113281 101.140625-53.816406 144.214844-3.464844 4.300781-2.789063 10.597656 1.511718 14.0625 4.320313 3.480468 10.613282 2.769531 14.0625-1.511719 37.558594-46.621094 58.242188-102.292969 58.242188-156.765625 0-138.011719-117.8125-256-256-256zm0 0"/><path d="m316 66h-120c-5.523438 0-10 4.476562-10 10v30h-30c-27.570312 0-50 22.429688-50 50v10h-10c-16.542969 0-30 13.457031-30 30v20c0 5.523438 4.476562 10 10 10s10-4.476562 10-10v-20c0-5.515625 4.484375-10 10-10h10v170c0 27.570312 22.429688 50 50 50l-48 64c-1.238281 1.65625-2 3.820312-2 6v26c0 5.523438 4.476562 10 10 10s10-4.476562 10-10v-16h260v16c0 5.523438 4.476562 10 10 10s10-4.476562 10-10v-26c0-2.117188-.722656-4.296875-2-6l-48-64c27.570312 0 50-22.429688 50-50v-170h10c5.515625 0 10 4.484375 10 10v20c0 5.523438 4.476562 10 10 10s10-4.476562 10-10v-20c0-16.542969-13.457031-30-30-30h-10v-10c0-27.570312-22.429688-50-50-50h-30v-30c0-5.523438-4.476562-10-10-10zm-110 20h100v40h-100zm-24.136719 180 13.808594-13.808594c3.902344-3.90625 3.902344-10.238281 0-14.144531-3.90625-3.902344-10.238281-3.902344-14.144531 0l-27.949219 27.953125h-27.578125v-80h120v80zm194.136719 200h-240l15-20h210zm-30-40h-180l15-20h150zm10-40h-200c-16.542969 0-30-13.457031-30-30v-70h260v70c0 16.542969-13.457031 30-30 30zm30-120h-64.136719l13.808594-13.808594c3.902344-3.90625 3.902344-10.238281 0-14.144531-3.90625-3.902344-10.238281-3.902344-14.144531 0l-27.949219 27.953125h-27.578125v-80h120zm-30-140c16.542969 0 30 13.457031 30 30v10h-260v-10c0-16.542969 13.457031-30 30-30h30v10c0 5.523438 4.476562 10 10 10h120c5.523438 0 10-4.476562 10-10v-10zm0 0"/><path d="m336 306c-16.542969 0-30 13.457031-30 30s13.457031 30 30 30 30-13.457031 30-30-13.457031-30-30-30zm0 40c-5.515625 0-10-4.484375-10-10s4.484375-10 10-10 10 4.484375 10 10-4.484375 10-10 10zm0 0"/><path d="m176 306c-16.542969 0-30 13.457031-30 30s13.457031 30 30 30 30-13.457031 30-30-13.457031-30-30-30zm0 40c-5.515625 0-10-4.484375-10-10s4.484375-10 10-10 10 4.484375 10 10-4.484375 10-10 10zm0 0"/><path d="m276 326h-40c-5.523438 0-10 4.476562-10 10s4.476562 10 10 10h40c5.523438 0 10-4.476562 10-10s-4.476562-10-10-10zm0 0"/></svg>