<svg height="512pt" viewBox="0 0 512 512" width="512pt" xmlns="http://www.w3.org/2000/svg"><path d="m220.421875 182c-19.601563 0-38.511719 7.191406-53.152344 20.210938l-138.738281 123.320312c-11.792969 10.480469-18.53125 25.488281-18.53125 41.257812 0 30.492188 24.71875 55.210938 55.210938 55.210938h436.789062c0-25.59375 0-210.796875 0-240-19.132812 0-270.488281 0-281.578125 0zm0 0" fill="#f2f2fc"/><path d="m502 462v40h-472c-11.039062 0-20-8.960938-20-20 0-11.050781 8.949219-20 20-20zm0 0" fill="#537983"/><g fill="#4dbaf6"><path d="m170 382c-11.050781 0-20 8.949219-20 20 0 11.039062 8.960938 20 20 20h332v-40c-10.199219 0-322.355469 0-332 0zm0 0"/><path d="m379 222h83v100h-83zm0 0"/><path d="m256 222h83v100h-83zm0 0"/><path d="m216 322h-183.5l112.5-100h71zm0 0"/></g><path d="m409 10c-50.027344 0-93 40.601562-93 90v82h186v-82c0-49.613281-43.199219-90-93-90zm0 0" fill="#537983"/><path d="m50 352c-5.519531 0-10 4.480469-10 10s4.480469 10 10 10 10-4.480469 10-10-4.480469-10-10-10zm0 0"/><path d="m256 332h83c5.523438 0 10-4.476562 10-10v-100c0-5.523438-4.476562-10-10-10h-83c-5.523438 0-10 4.476562-10 10v100c0 5.523438 4.476562 10 10 10zm10-100h63v80h-63zm0 0"/><path d="m379 332h83c5.523438 0 10-4.476562 10-10v-100c0-5.523438-4.476562-10-10-10h-83c-5.523438 0-10 4.476562-10 10v100c0 5.523438 4.476562 10 10 10zm10-100h63v80h-63zm0 0"/><path d="m130 352h-40c-5.523438 0-10 4.476562-10 10s4.476562 10 10 10h40c5.523438 0 10-4.476562 10-10s-4.476562-10-10-10zm0 0"/><path d="m409 0c-54.851562 0-103 44.617188-103 100v72h-85.578125c-22.074219 0-43.308594 8.074219-59.796875 22.734375-1.941406 1.726563-136.800781 121.597656-138.738281 123.320313-13.910157 12.363281-21.886719 30.128906-21.886719 48.734374 0 35.957032 29.253906 65.210938 65.210938 65.210938h94.789062v20h-130c-16.542969 0-30 13.457031-30 30 0 16.574219 13.425781 30 30 30h472c5.523438 0 10-4.476562 10-10 0-8.464844 0-390.585938 0-402 0-53.921875-46.4375-100-103-100zm-239 412c-5.519531 0-10-4.480469-10-10 0-5.515625 4.484375-10 10-10h96v20zm116-20h103v20h-103zm206 0v20h-83v-20zm0 40v20h-146v-20zm-83-412c36.449219 0 70.433594 24.695312 80.246094 60h-160.523438c9.503906-34.402344 42.773438-60 80.277344-60zm-83 80h166v72h-166zm-120 197.855469-22.929688-22.925781c-3.90625-3.90625-10.234374-3.90625-14.140624 0-3.90625 3.902343-3.90625 10.234374 0 14.140624l22.925781 22.929688h-133.050781l89.996093-80h57.199219zm-186 68.933593c0-22.277343 15.996094-34.375 16.304688-34.789062h179.695312c5.417969 0 10.003906-4.40625 10-10.003906v-99.996094c0-5.523438-4.476562-10-10-10h-44.691406l2.605468-2.316406c12.824219-11.402344 29.339844-17.683594 46.507813-17.683594h271.578125v180h-322c-16.542969 0-30 13.457031-30 30 0 3.460938.585938 6.828125 1.703125 10h-76.492187c-24.929688 0-45.210938-20.28125-45.210938-45.210938zm160 65.210938h146v20h-146zm-160 50c0-5.515625 4.484375-10 10-10h462v20h-462c-5.519531 0-10-4.480469-10-10zm0 0"/></svg>