<svg height="512pt" viewBox="0 -10 512 512" width="512pt" xmlns="http://www.w3.org/2000/svg"><path d="m160 452c0 16.53125-13.394531 30-30 30-16.597656 0-30-13.460938-30-30 0-16.570312 13.429688-30 30-30s30 13.429688 30 30zm0 0" fill="#537983"/><path d="m10 316v106c0 11.050781 8.949219 20 20 20h166v-126c-20.671875 0-165.347656 0-186 0zm0 0" fill="#ff5d5d"/><path d="m482 210h-452c-11.050781 0-20 8.949219-20 20v86h492v-86c0-11.050781-8.949219-20-20-20zm0 0" fill="#4dbaf6"/><path d="m412 452c0 16.53125-13.394531 30-30 30-16.597656 0-30-13.460938-30-30 0-16.570312 13.429688-30 30-30s30 13.429688 30 30zm0 0" fill="#537983"/><path d="m462 316h40v40h-40zm0 0" fill="#ffc66c"/><path d="m316 250v192h-120c0-36.9375 0-155.632812 0-192zm0 0" fill="#f2f2fc"/><path d="m402 170h-106v-40h-80v40h-106c-11.050781 0-20 8.949219-20 20v20h332v-20c0-11.050781-8.949219-20-20-20zm0 0" fill="#537983"/><path d="m276 90h-40c0-24.914062 0-54.921875 0-80h40zm0 0" fill="#537983"/><path d="m10 316h40v40h-40zm0 0" fill="#ffc66c"/><path d="m502 316h-186v126h166c11.050781 0 20-8.949219 20-20zm0 0" fill="#ff5d5d"/><path d="m256 392c-5.519531 0-10 4.480469-10 10s4.480469 10 10 10 10-4.480469 10-10-4.480469-10-10-10zm0 0"/><path d="m512 50c0-5.523438-4.476562-10-10-10h-216v-30c0-5.523438-4.476562-10-10-10h-40c-5.523438 0-10 4.476562-10 10v30h-216c-5.523438 0-10 4.476562-10 10s4.476562 10 10 10h202.050781l-23.089843 22.898438c-3.070313 3.042968-3.835938 7.710937-1.90625 11.574218l18.945312 37.886719v27.640625h-96c-16.542969 0-30 13.457031-30 30v10h-50c-16.542969 0-30 13.457031-30 30v192c0 16.542969 13.457031 30 30 30h60c0 22.191406 18.054688 40 40 40 21.933594 0 40-17.792969 40-40h172c0 22.191406 18.054688 40 40 40 21.933594 0 40-17.792969 40-40h60c16.542969 0 30-13.457031 30-30v-192c0-16.542969-13.457031-30-30-30h-50v-10c0-16.542969-13.457031-30-30-30h-96v-27.640625l18.945312-37.886719c1.929688-3.863281 1.164063-8.53125-1.90625-11.574218l-23.089843-22.898438h202.050781c5.523438 0 10-4.476562 10-10zm-266-30h20v60h-20zm60 200v20h-100v-20zm126 0v86h-106v-86zm60 106v20h-20v-20zm-286-66h40v102c0 5.523438 4.476562 10 10 10s10-4.476562 10-10v-102h40v172h-100zm-20 46h-106v-86h106zm-166 20h20v20h-20zm10-106h30v86h-40v-76c0-5.515625 4.484375-10 10-10zm100 252c-10.925781 0-20-8.859375-20-20.011719h40c0 11.148438-9.070312 20.011719-20 20.011719zm-100-40c-5.515625 0-10-4.484375-10-10v-56h30c5.523438 0 10-4.476562 10-10v-30h126v106zm352 40c-10.925781 0-20-8.859375-20-20.011719h40c0 11.148438-9.070312 20.011719-20 20.011719zm100-40h-156v-106h126v30c0 5.523438 4.476562 10 10 10h30v56c0 5.515625-4.484375 10-10 10zm10-202v76h-40v-86h30c5.515625 0 10 4.484375 10 10zm-80-40v10h-312v-10c0-5.515625 4.484375-10 10-10h292c5.515625 0 10 4.484375 10 10zm-186-30v-20h60v20zm63.820312-40h-67.640624l-14-27.996094 17.820312-17.671875v15.667969c0 5.523438 4.476562 10 10 10h40c5.523438 0 10-4.476562 10-10v-15.667969l17.816406 17.671875zm0 0"/><path d="m156 346h-66c-5.523438 0-10 4.476562-10 10s4.476562 10 10 10h66c5.523438 0 10-4.476562 10-10s-4.476562-10-10-10zm0 0"/><path d="m422 346h-66c-5.523438 0-10 4.476562-10 10s4.476562 10 10 10h66c5.523438 0 10-4.476562 10-10s-4.476562-10-10-10zm0 0"/></svg>