<svg height="512pt" viewBox="0 0 512 512" width="512pt" xmlns="http://www.w3.org/2000/svg"><path d="m422 146c0 16.570312-13.429688 30-30 30s-30-13.429688-30-30 13.429688-30 30-30 30 13.429688 30 30zm0 0" fill="#4dbaf6"/><path d="m500.570312 303.570312-22.410156-46.050781c-70.777344-54.648437-72.980468-57.542969-77.96875-59.757812-7.160156-3.242188-15.570312-1.960938-21.480468 3.289062l-90 80c-8.25 7.339844-9 19.980469-1.660157 28.238281 7.328125 8.261719 19.96875 8.992188 28.238281 1.660157l56.710938-50.410157v74.222657l-45.359375 54.4375c-3 3.589843-4.640625 8.121093-4.640625 12.800781v80c0 11.039062 8.960938 20 20 20s20-8.960938 20-20v-72.761719l19.210938-23.058593 60.429687 105.742187c3.6875 6.457031 10.4375 10.078125 17.378906 10.078125 3.359375 0 6.769531-.851562 9.902344-2.640625 9.589844-5.480469 12.917969-17.6875 7.4375-27.28125l-67.871094-118.769531c2.28125-3.308594 3.511719-7.257813 3.511719-11.308594v-88.671875l33.859375 26.171875 17.570313 38.929688c4.101562 10.25 15.742187 15.242187 26 11.140624 10.25-4.101562 15.242187-15.742187 11.140624-26zm0 0" fill="#4dbaf6"/><path d="m336 50c11.050781 0 20 8.949219 20 20 0 5.519531-2.238281 10.519531-5.859375 14.140625s-8.621094 5.859375-14.140625 5.859375h-120c-11.050781 0-20-8.949219-20-20s8.949219-20 20-20h20c0-22.089844 17.910156-40 40-40s40 17.910156 40 40zm0 0" fill="#f2f2fc"/><g fill="#537983"><path d="m265.660156 360.640625c5.519532 9.570313 2.25 21.800781-7.320312 27.320313l-17.320313 10c-9.570312 5.519531-21.800781 2.25-27.320312-7.320313l-40-69.28125c-5.519531-9.570313-2.25-21.800781 7.320312-27.320313l17.320313-10c9.570312-5.519531 21.800781-2.25 27.320312 7.320313 12.226563 21.175781 27.6875 47.957031 40 69.28125zm0 0"/><path d="m150 482v20h-120v-20c0-11.050781 8.949219-20 20-20h80c11.050781 0 20 8.949219 20 20zm0 0"/><path d="m150 30v200c0 11.050781-8.949219 20-20 20-9.679688 0-70.257812 0-80 0-11.050781 0-20-8.949219-20-20v-200c0-11.050781 8.949219-20 20-20h80c11.050781 0 20 8.949219 20 20zm0 0"/></g><path d="m90 50c11.050781 0 20 8.949219 20 20s-8.949219 20-20 20-20-8.949219-20-20 8.949219-20 20-20zm0 0" fill="#ff5d5d"/><path d="m90 110c11.050781 0 20 8.949219 20 20s-8.949219 20-20 20-20-8.949219-20-20 8.949219-20 20-20zm0 0" fill="#ffc66c"/><path d="m90 170c11.050781 0 20 8.949219 20 20s-8.949219 20-20 20-20-8.949219-20-20 8.949219-20 20-20zm0 0" fill="#80d99c"/><path d="m120 70c0-16.542969-13.457031-30-30-30s-30 13.457031-30 30 13.457031 30 30 30 30-13.457031 30-30zm-30 10c-5.515625 0-10-4.484375-10-10s4.484375-10 10-10 10 4.484375 10 10-4.484375 10-10 10zm0 0"/><path d="m120 130c0-16.542969-13.457031-30-30-30s-30 13.457031-30 30 13.457031 30 30 30 30-13.457031 30-30zm-30 10c-5.515625 0-10-4.484375-10-10s4.484375-10 10-10 10 4.484375 10 10-4.484375 10-10 10zm0 0"/><path d="m120 190c0-16.542969-13.457031-30-30-30s-30 13.457031-30 30 13.457031 30 30 30 30-13.457031 30-30zm-40 0c0-5.515625 4.484375-10 10-10s10 4.484375 10 10-4.484375 10-10 10-10-4.484375-10-10zm0 0"/><path d="m216 100h120c8.011719 0 15.542969-3.121094 21.210938-8.789062 5.667968-5.667969 8.789062-13.199219 8.789062-21.210938 0-16.542969-13.457031-30-30-30h-11.003906c-4.644532-22.792969-24.851563-40-48.996094-40s-44.351562 17.207031-48.996094 40h-11.003906c-16.542969 0-30 13.457031-30 30s13.457031 30 30 30zm0-40h20c5.523438 0 10-4.476562 10-10 0-16.542969 13.457031-30 30-30s30 13.457031 30 30c0 5.523438 4.476562 10 10 10h20c5.515625 0 10 4.484375 10 10 0 2.667969-1.039062 5.179688-2.929688 7.066406-1.890624 1.894532-4.402343 2.933594-7.070312 2.933594h-120c-5.515625 0-10-4.484375-10-10s4.484375-10 10-10zm0 0"/><path d="m352 146c0 22.054688 17.945312 40 40 40s40-17.945312 40-40-17.945312-40-40-40-40 17.945312-40 40zm40-20c11.027344 0 20 8.972656 20 20s-8.972656 20-20 20-20-8.972656-20-20 8.972656-20 20-20zm0 0"/><path d="m502 492h-14.746094c2.804688-7.941406 2.285156-17.011719-2.210937-24.882812l-65.164063-114.03125c1.394532-3.5 2.121094-7.246094 2.121094-11.085938v-68.300781l15.769531 12.1875 16.464844 36.480469c6.183594 15.113281 23.535156 22.628906 38.910156 16.488281 15.351563-6.140625 22.847657-23.632813 16.710938-38.996094-.089844-.222656-.1875-.445313-.292969-.664063l-22.410156-46.050781c-.671875-1.375-1.644532-2.578125-2.855469-3.519531l-77.550781-60.300781c-4.0625-3.15625-21.851563-7.144531-34.679688 4.25l-90.003906 80.003906c-2.972656 2.644531-5.285156 5.75-6.945312 9.117187-9.058594-6.292968-21.539063-7.449218-32.136719-1.335937l-8.660157 5c-8.265624-14.320313-26.644531-19.25-40.980468-10.980469l-17.320313 10c-14.363281 8.285156-19.269531 26.609375-10.980469 40.980469l39.996094 69.277344c8.269532 14.332031 26.585938 19.289062 40.984375 10.980469l17.316407-9.996094c14.324218-8.261719 19.253906-26.644532 10.980468-40.980469l8.660156-5c9.320313-5.375 14.617188-14.910156 14.984376-24.9375 8.367187 1.125 17.164062-1.246094 23.96875-7.28125l40.070312-35.613281v48.332031l-43.03125 51.648437c-4.496094 5.375-6.96875 12.195313-6.96875 19.210938v80c0 3.507812.609375 6.871094 1.71875 10h-153.71875v-10c0-16.542969-13.457031-30-30-30h-30v-192h30c16.542969 0 30-13.457031 30-30v-200c0-16.542969-13.457031-30-30-30h-80c-16.542969 0-30 13.457031-30 30v200c0 16.542969 13.457031 30 30 30h30v192h-30c-16.542969 0-30 13.457031-30 30v10h-10c-5.523438 0-10 4.476562-10 10s4.476562 10 10 10h492c5.523438 0 10-4.476562 10-10s-4.476562-10-10-10zm-462-262v-200c0-5.515625 4.484375-10 10-10h80c5.515625 0 10 4.484375 10 10v200c0 5.515625-4.484375 10-10 10h-80c-5.515625 0-10-4.484375-10-10zm423.953125 260.679688c-4.878906 2.789062-10.949219.976562-13.632813-3.722657l-56.980468-99.707031 13.65625-16.394531 60.679687 106.183593c2.734375 4.785157 1.066407 10.902344-3.722656 13.640626zm-91.953125-8.679688v-69.140625l7.675781-9.210937 50.492188 88.351562h-59.886719c1.109375-3.128906 1.71875-6.492188 1.71875-10zm119.394531-174.4375c1.84375 5.054688-.652343 10.714844-5.675781 12.722656-5.121094 2.046875-10.957031-.449218-13.003906-5.570312-.054688-.132813-.109375-.265625-.167969-.398438l-17.570313-38.929687c-.675781-1.492188-1.703124-2.796875-3-3.796875l-29.976562-23.167969v-21.902344l48.1875 37.46875zm-238.054687 71.738281-17.316406 9.996094c-4.78125 2.757813-10.890626 1.144531-13.664063-3.65625l-39.996094-69.277344c-2.761719-4.785156-1.136719-10.898437 3.65625-13.664062l17.316407-9.996094c4.769531-2.753906 10.902343-1.132813 13.664062 3.65625.066406.113281 40.085938 69.425781 39.996094 69.277344 2.757812 4.78125 1.117187 10.910156-3.65625 13.664062zm19.640625-45.980469-8.660157 5-20-34.640624 8.65625-4.996094c4.78125-2.757813 10.890626-1.148438 13.664063 3.65625l9.996094 17.316406c2.761719 4.785156 1.140625 10.898438-3.65625 13.664062zm59.019531 148.679688v-80c0-2.335938.820312-4.601562 2.320312-6.398438l45.363282-54.441406c1.496094-1.796875 2.316406-4.058594 2.316406-6.398437v-74.222657c0-8.648437-10.234375-13.167968-16.644531-7.472656l-56.699219 50.402344c-4.136719 3.664062-10.476562 3.300781-14.132812-.820312-3.664063-4.121094-3.289063-10.460938.828124-14.125l90-79.996094c6.371094-5.664063 16.648438-1.242188 16.648438 7.472656v126c0 2.03125-.605469 3.980469-1.75 5.644531-.175781.253907-.367188.507813-.570312.753907l-45.363282 54.441406c-1.496094 1.796875-2.316406 4.0625-2.316406 6.398437v72.761719c0 5.515625-4.484375 10-10 10-5.511719 0-10-4.484375-10-10zm-292 0c0-5.515625 4.484375-10 10-10h80c5.515625 0 10 4.484375 10 10v10h-100zm0 0"/></svg>